<?xml version="1.0" encoding="UTF-8"?><svg id="Layer_1" xmlns="http://www.w3.org/2000/svg" viewBox="0 0 16 16"><defs><style>.cls-1{fill:#aba361;}.cls-1,.cls-2{stroke-width:0px;}.cls-2{fill:#eff7cf;}</style></defs><rect class="cls-1" x="0" y="0" width="16" height="16" rx="2.92" ry="2.92"/><path class="cls-2" d="m5.28,5.34v1.04h-1.41v4.3h-1.3v-4.3h-1.41v-1.04h4.13Z"/><path class="cls-2" d="m5.49,6.59c.23-.41.55-.73.96-.97.41-.23.87-.35,1.39-.35.63,0,1.18.17,1.63.5s.75.79.9,1.37h-1.43c-.11-.22-.26-.39-.45-.51-.2-.12-.42-.17-.67-.17-.4,0-.73.14-.97.42-.25.28-.37.65-.37,1.12s.12.84.37,1.12c.25.28.57.42.97.42.25,0,.47-.06.67-.18.19-.12.35-.29.45-.51h1.43c-.15.58-.45,1.03-.9,1.36-.45.33-.99.5-1.63.5-.52,0-.98-.12-1.39-.35-.41-.23-.73-.55-.96-.96-.23-.41-.34-.88-.34-1.41s.11-1,.34-1.41Z"/><path class="cls-2" d="m14.57,8.4c.19.24.28.52.28.83,0,.45-.16.8-.47,1.06-.31.26-.75.39-1.3.39h-2.49v-5.34h2.4c.54,0,.97.12,1.27.37s.46.59.46,1.01c0,.31-.08.58-.25.78s-.38.35-.66.43c.31.07.56.22.75.46Zm-2.68-.9h.85c.21,0,.38-.05.49-.14s.17-.23.17-.41-.06-.32-.17-.42c-.11-.1-.28-.14-.49-.14h-.85v1.12Zm1.46,1.98c.12-.1.18-.24.18-.43s-.06-.33-.19-.44-.3-.16-.51-.16h-.94v1.18h.96c.22,0,.39-.05.51-.15Z"/></svg>